<svg width="32" height="32" viewBox="0 0 32 32" fill="none" xmlns="http://www.w3.org/2000/svg">
<rect width="32" height="32" rx="8" fill="#1F242C"/>
<path fill-rule="evenodd" clip-rule="evenodd" d="M7.66504 11.8333C7.66504 9.99238 9.15742 8.5 10.9984 8.5H20.9984C22.8393 8.5 24.3317 9.99238 24.3317 11.8333V13.0833H20.9984C19.3875 13.0833 18.0817 14.3892 18.0817 16C18.0817 17.6108 19.3875 18.9167 20.9984 18.9167H24.3317V20.1667C24.3317 22.0076 22.8393 23.5 20.9984 23.5H10.9984C9.15742 23.5 7.66504 22.0076 7.66504 20.1667V11.8333ZM20.9967 17.6683H24.3301V14.335H20.9967C20.0763 14.335 19.3301 15.0812 19.3301 16.0016C19.3301 16.9221 20.0763 17.6683 20.9967 17.6683Z" fill="white"/>
</svg>
