<svg width="20" height="20" viewBox="0 0 20 20" fill="none" xmlns="http://www.w3.org/2000/svg">
<g clip-path="url(#clip0_487_3350)">
<path fill-rule="evenodd" clip-rule="evenodd" d="M4.81414 4.20922L5.42127 3.60209C5.75657 3.26678 6.30022 3.26678 6.63553 3.60209L6.93909 3.90566L5.1177 5.72705L4.81413 5.42348C4.47883 5.08817 4.47883 4.54453 4.81414 4.20922ZM16.9567 16.3518L17.5639 15.7447C17.8992 15.4094 17.8992 14.8657 17.5639 14.5304L17.2603 14.2269L11.7961 8.7627L9.97474 10.5841L15.4389 16.0483L15.7425 16.3518C16.0778 16.6871 16.6214 16.6871 16.9567 16.3518ZM7.34205 12.002L13.2134 6.13068C13.6039 5.74015 13.6039 5.10699 13.2134 4.71646L10.9848 2.48789C10.5943 2.09737 9.96114 2.09737 9.57062 2.4879L3.69927 8.35925C3.30874 8.74977 3.30874 9.38293 3.69927 9.77346L4.81355 10.8877L5.92784 12.002C6.31836 12.3926 6.95152 12.3926 7.34205 12.002Z" fill="#768398"/>
<rect x="4.33203" y="16.668" width="6.66667" height="1.66667" rx="0.833333" fill="#768398"/>
</g>
<defs>
<clipPath id="clip0_487_3350">
<rect width="20" height="20" fill="white"/>
</clipPath>
</defs>
</svg>
