<svg width="20" height="20" viewBox="0 0 20 20" fill="none" xmlns="http://www.w3.org/2000/svg">
<g clip-path="url(#clip0_70_4069)">
<path fill-rule="evenodd" clip-rule="evenodd" d="M4.81502 4.20883L5.42215 3.6017C5.75745 3.26639 6.3011 3.26639 6.63641 3.6017L6.93997 3.90526L5.11858 5.72666L4.81502 5.42309C4.47971 5.08778 4.47971 4.54414 4.81502 4.20883ZM16.9576 16.3514L17.5648 15.7443C17.9001 15.409 17.9001 14.8654 17.5648 14.53L17.2612 14.2265L11.797 8.76231L9.97562 10.5837L15.4398 16.0479L15.7434 16.3514C16.0787 16.6867 16.6223 16.6867 16.9576 16.3514ZM7.34349 12.0015L13.2148 6.13016C13.6054 5.73964 13.6054 5.10647 13.2148 4.71595L10.9863 2.48738C10.5957 2.09685 9.96258 2.09686 9.57205 2.48738L3.7007 8.35873C3.31018 8.74925 3.31018 9.38242 3.7007 9.77294L4.81499 10.8872L5.92927 12.0015C6.3198 12.392 6.95296 12.392 7.34349 12.0015Z" fill="#AAB9D0"/>
<rect x="4.33203" y="16.668" width="6.66667" height="1.66667" rx="0.833333" fill="#AAB9D0"/>
</g>
<defs>
<clipPath id="clip0_70_4069">
<rect width="20" height="20" fill="white"/>
</clipPath>
</defs>
</svg>
