<svg width="18" height="16" viewBox="0 0 18 16" fill="none" xmlns="http://www.w3.org/2000/svg">
<path fill-rule="evenodd" clip-rule="evenodd" d="M7.33366 2.16667C7.33366 1.24619 8.07985 0.5 9.00033 0.5C9.9208 0.5 10.667 1.24619 10.667 2.16667V13.8333C10.667 14.7538 9.9208 15.5 9.00033 15.5C8.07985 15.5 7.33366 14.7538 7.33366 13.8333V2.16667ZM0.666992 6.33333C0.666992 5.41286 1.41318 4.66667 2.33366 4.66667C3.25413 4.66667 4.00033 5.41286 4.00033 6.33333V13.8333C4.00033 14.7538 3.25413 15.5 2.33366 15.5C1.41318 15.5 0.666992 14.7538 0.666992 13.8333V6.33333ZM15.667 4.66667C14.7465 4.66667 14.0003 5.41286 14.0003 6.33333V13.8333C14.0003 14.7538 14.7465 15.5 15.667 15.5C16.5875 15.5 17.3337 14.7538 17.3337 13.8333V6.33333C17.3337 5.41286 16.5875 4.66667 15.667 4.66667Z" fill="#768398"/>
</svg>
