<svg width="20" height="20" viewBox="0 0 20 20" fill="none" xmlns="http://www.w3.org/2000/svg">
<path fill-rule="evenodd" clip-rule="evenodd" d="M8.33366 4.16667C8.33366 3.24619 9.07985 2.5 10.0003 2.5C10.9208 2.5 11.667 3.24619 11.667 4.16667V15.8333C11.667 16.7538 10.9208 17.5 10.0003 17.5C9.07985 17.5 8.33366 16.7538 8.33366 15.8333V4.16667ZM1.66699 8.33333C1.66699 7.41286 2.41318 6.66667 3.33366 6.66667C4.25413 6.66667 5.00033 7.41286 5.00033 8.33333V15.8333C5.00033 16.7538 4.25413 17.5 3.33366 17.5C2.41318 17.5 1.66699 16.7538 1.66699 15.8333V8.33333ZM16.667 6.66667C15.7465 6.66667 15.0003 7.41286 15.0003 8.33333V15.8333C15.0003 16.7538 15.7465 17.5 16.667 17.5C17.5875 17.5 18.3337 16.7538 18.3337 15.8333V8.33333C18.3337 7.41286 17.5875 6.66667 16.667 6.66667Z" fill="white"/>
</svg>
