<svg width="20" height="20" viewBox="0 0 20 20" fill="none" xmlns="http://www.w3.org/2000/svg">
<path fill-rule="evenodd" clip-rule="evenodd" d="M8.33334 4.16667C8.33334 3.24619 9.07953 2.5 10 2.5C10.9205 2.5 11.6667 3.24619 11.6667 4.16667V15.8333C11.6667 16.7538 10.9205 17.5 10 17.5C9.07953 17.5 8.33334 16.7538 8.33334 15.8333V4.16667ZM1.66667 8.33333C1.66667 7.41286 2.41286 6.66667 3.33334 6.66667C4.25381 6.66667 5.00001 7.41286 5.00001 8.33333V15.8333C5.00001 16.7538 4.25381 17.5 3.33334 17.5C2.41286 17.5 1.66667 16.7538 1.66667 15.8333V8.33333ZM16.6667 6.66667C15.7462 6.66667 15 7.41286 15 8.33333V15.8333C15 16.7538 15.7462 17.5 16.6667 17.5C17.5871 17.5 18.3333 16.7538 18.3333 15.8333V8.33333C18.3333 7.41286 17.5871 6.66667 16.6667 6.66667Z" fill="#1F242C"/>
</svg>
