<svg width="64" height="64" viewBox="0 0 64 64" fill="none" xmlns="http://www.w3.org/2000/svg">
<path opacity="0.34" d="M62 32C62 35.9397 61.224 39.8407 59.7164 43.4805C58.2087 47.1203 55.999 50.4274 53.2132 53.2132C50.4274 55.999 47.1203 58.2087 43.4805 59.7164C39.8407 61.224 35.9397 62 32 62C28.0603 62 24.1593 61.224 20.5195 59.7164C16.8797 58.2087 13.5726 55.999 10.7868 53.2132C8.00104 50.4274 5.79125 47.1203 4.28361 43.4805C2.77597 39.8407 2 35.9397 2 32C2 28.0603 2.77597 24.1593 4.28362 20.5195C5.79126 16.8797 8.00104 13.5726 10.7868 10.7868C13.5726 8.00104 16.8797 5.79125 20.5195 4.28361C24.1593 2.77597 28.0603 2 32 2C35.9397 2 39.8407 2.77597 43.4805 4.28362C47.1203 5.79126 50.4274 8.00104 53.2132 10.7868C55.999 13.5726 58.2087 16.8797 59.7164 20.5195C61.224 24.1593 62 28.0603 62 32L62 32Z" stroke="#4FDFFF" stroke-width="4" stroke-linecap="round"/>
<path d="M62 32C62 37.9334 60.2405 43.7336 56.9441 48.6671C53.6476 53.6006 48.9623 57.4458 43.4805 59.7164C37.9987 61.987 31.9667 62.5811 26.1473 61.4236C20.3279 60.266 14.9824 57.4088 10.7868 53.2132C6.59122 49.0176 3.734 43.6721 2.57644 37.8527C1.41888 32.0333 2.01299 26.0013 4.28361 20.5195C6.55424 15.0377 10.3994 10.3524 15.3329 7.05591C20.2664 3.75947 26.0666 2 32 2" stroke="#4FDFFF" stroke-width="4" stroke-linecap="round"/>
</svg>
