<svg width="20" height="20" viewBox="0 0 20 20" fill="none" xmlns="http://www.w3.org/2000/svg">
<path fill-rule="evenodd" clip-rule="evenodd" d="M7.33333 18.3333C5.12419 18.3333 3.33333 16.5424 3.33333 14.3333V5.66663C3.33333 3.45749 5.12419 1.66663 7.33333 1.66663H12.6667C14.8758 1.66663 16.6667 3.45749 16.6667 5.66663V14.3333C16.6667 16.5424 14.8758 18.3333 12.6667 18.3333H7.33333ZM6.04166 4.99996C6.04166 4.65478 6.32148 4.37496 6.66666 4.37496H13.3333C13.6785 4.37496 13.9583 4.65478 13.9583 4.99996C13.9583 5.34514 13.6785 5.62496 13.3333 5.62496H6.66666C6.32148 5.62496 6.04166 5.34514 6.04166 4.99996ZM7.29166 8.33329C7.29166 8.67847 7.01184 8.95829 6.66666 8.95829C6.32148 8.95829 6.04166 8.67847 6.04166 8.33329C6.04166 7.98811 6.32148 7.70829 6.66666 7.70829C7.01184 7.70829 7.29166 7.98811 7.29166 8.33329ZM10.625 8.33329C10.625 8.67847 10.3452 8.95829 10 8.95829C9.65482 8.95829 9.375 8.67847 9.375 8.33329C9.375 7.98811 9.65482 7.70829 10 7.70829C10.3452 7.70829 10.625 7.98811 10.625 8.33329ZM13.3333 8.95829C13.6785 8.95829 13.9583 8.67847 13.9583 8.33329C13.9583 7.98811 13.6785 7.70829 13.3333 7.70829C12.9882 7.70829 12.7083 7.98811 12.7083 8.33329C12.7083 8.67847 12.9882 8.95829 13.3333 8.95829ZM6.66666 12.2916C7.01184 12.2916 7.29166 12.0118 7.29166 11.6666C7.29166 11.3214 7.01184 11.0416 6.66666 11.0416C6.32148 11.0416 6.04166 11.3214 6.04166 11.6666C6.04166 12.0118 6.32148 12.2916 6.66666 12.2916ZM10 12.2916C10.3452 12.2916 10.625 12.0118 10.625 11.6666C10.625 11.3214 10.3452 11.0416 10 11.0416C9.65482 11.0416 9.375 11.3214 9.375 11.6666C9.375 12.0118 9.65482 12.2916 10 12.2916ZM13.9583 11.6666C13.9583 12.0118 13.6785 12.2916 13.3333 12.2916C12.9882 12.2916 12.7083 12.0118 12.7083 11.6666C12.7083 11.3214 12.9882 11.0416 13.3333 11.0416C13.6785 11.0416 13.9583 11.3214 13.9583 11.6666ZM7.29166 15C7.29166 15.3451 7.01184 15.625 6.66666 15.625C6.32148 15.625 6.04166 15.3451 6.04166 15C6.04166 14.6548 6.32148 14.375 6.66666 14.375C7.01184 14.375 7.29166 14.6548 7.29166 15ZM10.625 15C10.625 15.3451 10.3452 15.625 10 15.625C9.65482 15.625 9.375 15.3451 9.375 15C9.375 14.6548 9.65482 14.375 10 14.375C10.3452 14.375 10.625 14.6548 10.625 15ZM13.3333 15.625C13.6785 15.625 13.9583 15.3451 13.9583 15C13.9583 14.6548 13.6785 14.375 13.3333 14.375C12.9882 14.375 12.7083 14.6548 12.7083 15C12.7083 15.3451 12.9882 15.625 13.3333 15.625Z" fill="#AAB9D0"/>
</svg>
