<svg width="20" height="20" viewBox="0 0 20 20" fill="none" xmlns="http://www.w3.org/2000/svg">
<path fill-rule="evenodd" clip-rule="evenodd" d="M7.33337 18.3333C5.12423 18.3333 3.33337 16.5424 3.33337 14.3333V5.66663C3.33337 3.45749 5.12423 1.66663 7.33337 1.66663H12.6667C14.8758 1.66663 16.6667 3.45749 16.6667 5.66663V14.3333C16.6667 16.5424 14.8758 18.3333 12.6667 18.3333H7.33337ZM6.04171 4.99996C6.04171 4.65478 6.32153 4.37496 6.66671 4.37496H13.3334C13.6786 4.37496 13.9584 4.65478 13.9584 4.99996C13.9584 5.34514 13.6786 5.62496 13.3334 5.62496H6.66671C6.32153 5.62496 6.04171 5.34514 6.04171 4.99996ZM7.29171 8.33329C7.29171 8.67847 7.01189 8.95829 6.66671 8.95829C6.32153 8.95829 6.04171 8.67847 6.04171 8.33329C6.04171 7.98811 6.32153 7.70829 6.66671 7.70829C7.01189 7.70829 7.29171 7.98811 7.29171 8.33329ZM10.625 8.33329C10.625 8.67847 10.3452 8.95829 10 8.95829C9.65486 8.95829 9.37504 8.67847 9.37504 8.33329C9.37504 7.98811 9.65486 7.70829 10 7.70829C10.3452 7.70829 10.625 7.98811 10.625 8.33329ZM13.3334 8.95829C13.6786 8.95829 13.9584 8.67847 13.9584 8.33329C13.9584 7.98811 13.6786 7.70829 13.3334 7.70829C12.9882 7.70829 12.7084 7.98811 12.7084 8.33329C12.7084 8.67847 12.9882 8.95829 13.3334 8.95829ZM6.66671 12.2916C7.01189 12.2916 7.29171 12.0118 7.29171 11.6666C7.29171 11.3214 7.01189 11.0416 6.66671 11.0416C6.32153 11.0416 6.04171 11.3214 6.04171 11.6666C6.04171 12.0118 6.32153 12.2916 6.66671 12.2916ZM10 12.2916C10.3452 12.2916 10.625 12.0118 10.625 11.6666C10.625 11.3214 10.3452 11.0416 10 11.0416C9.65486 11.0416 9.37504 11.3214 9.37504 11.6666C9.37504 12.0118 9.65486 12.2916 10 12.2916ZM13.9584 11.6666C13.9584 12.0118 13.6786 12.2916 13.3334 12.2916C12.9882 12.2916 12.7084 12.0118 12.7084 11.6666C12.7084 11.3214 12.9882 11.0416 13.3334 11.0416C13.6786 11.0416 13.9584 11.3214 13.9584 11.6666ZM7.29171 15C7.29171 15.3451 7.01189 15.625 6.66671 15.625C6.32153 15.625 6.04171 15.3451 6.04171 15C6.04171 14.6548 6.32153 14.375 6.66671 14.375C7.01189 14.375 7.29171 14.6548 7.29171 15ZM10.625 15C10.625 15.3451 10.3452 15.625 10 15.625C9.65486 15.625 9.37504 15.3451 9.37504 15C9.37504 14.6548 9.65486 14.375 10 14.375C10.3452 14.375 10.625 14.6548 10.625 15ZM13.3334 15.625C13.6786 15.625 13.9584 15.3451 13.9584 15C13.9584 14.6548 13.6786 14.375 13.3334 14.375C12.9882 14.375 12.7084 14.6548 12.7084 15C12.7084 15.3451 12.9882 15.625 13.3334 15.625Z" fill="#768398"/>
</svg>
