<svg width="24" height="16" viewBox="0 0 24 16" fill="none" xmlns="http://www.w3.org/2000/svg">
<path d="M17.794 0.590679C18.0115 1.09561 17.7999 1.69388 17.3226 1.92502L2.17976 10.8609L16.5122 0.0955257L16.5257 0.089303C16.7571 -0.0204888 17.0203 -0.0293953 17.2578 0.0645255C17.4954 0.158446 17.6881 0.347577 17.794 0.590679Z" fill="#4FDFFF"/>
<path d="M23.8611 1.9908C23.7051 1.66099 23.4352 1.41386 23.1021 1.29652C22.9386 1.2386 22.7667 1.21537 22.5946 1.22819C22.4225 1.24101 22.2545 1.28961 22.1004 1.37119L22.0928 1.37564L0 16L23.2742 3.84785C23.4284 3.76679 23.5659 3.65438 23.6788 3.51707C23.7917 3.37976 23.8777 3.22027 23.9319 3.04778C24.0432 2.69664 24.0171 2.32061 23.8611 1.9908Z" fill="#4FDFFF"/>
<path d="M18.5456 10.3852C18.6108 10.1774 18.5953 9.95076 18.5023 9.75502C18.4563 9.65757 18.3917 9.57065 18.3138 9.49925C18.2359 9.42784 18.1454 9.37335 18.0474 9.33891C17.9495 9.30447 17.8461 9.29075 17.7431 9.29855C17.6402 9.30634 17.5397 9.33549 17.4474 9.38432L17.4364 9.38966L8.22155 15.0701L18.154 10.8636C18.3395 10.765 18.4803 10.593 18.5456 10.3852Z" fill="#4FDFFF"/>
</svg>
