<svg width="20" height="20" viewBox="0 0 20 20" fill="none" xmlns="http://www.w3.org/2000/svg">
<path fill-rule="evenodd" clip-rule="evenodd" d="M18.3346 9.99935C18.3346 14.6017 14.6037 18.3327 10.0013 18.3327C5.39893 18.3327 1.66797 14.6017 1.66797 9.99935C1.66797 5.39698 5.39893 1.66602 10.0013 1.66602C14.6037 1.66602 18.3346 5.39698 18.3346 9.99935ZM10.8346 5.83268C10.8346 6.29292 10.4615 6.66602 10.0013 6.66602C9.54107 6.66602 9.16797 6.29292 9.16797 5.83268C9.16797 5.37244 9.54107 4.99935 10.0013 4.99935C10.4615 4.99935 10.8346 5.37244 10.8346 5.83268ZM9.16797 7.70768C8.82279 7.70768 8.54297 7.9875 8.54297 8.33268C8.54297 8.67786 8.82279 8.95768 9.16797 8.95768H9.3763V14.166C9.3763 14.5112 9.65612 14.791 10.0013 14.791C10.3465 14.791 10.6263 14.5112 10.6263 14.166V8.33268C10.6263 7.9875 10.3465 7.70768 10.0013 7.70768H9.16797Z" fill="#AAB9D0"/>
</svg>
