<svg width="20" height="20" viewBox="0 0 20 20" fill="none" xmlns="http://www.w3.org/2000/svg">
<path fill-rule="evenodd" clip-rule="evenodd" d="M5.83333 1.66663C3.99238 1.66663 2.5 3.15901 2.5 4.99996V15C2.5 16.8409 3.99238 18.3333 5.83333 18.3333H14.1667C16.0076 18.3333 17.5 16.8409 17.5 15V4.99996C17.5 3.15901 16.0076 1.66663 14.1667 1.66663H5.83333ZM6.66667 13.5416C6.32149 13.5416 6.04167 13.8214 6.04167 14.1666C6.04167 14.5118 6.32149 14.7916 6.66667 14.7916H13.3333C13.6785 14.7916 13.9583 14.5118 13.9583 14.1666C13.9583 13.8214 13.6785 13.5416 13.3333 13.5416H6.66667ZM6.04167 9.99996C6.04167 9.65478 6.32149 9.37496 6.66667 9.37496H13.3333C13.6785 9.37496 13.9583 9.65478 13.9583 9.99996C13.9583 10.3451 13.6785 10.625 13.3333 10.625H6.66667C6.32149 10.625 6.04167 10.3451 6.04167 9.99996ZM6.66667 5.20829C6.32149 5.20829 6.04167 5.48811 6.04167 5.83329C6.04167 6.17847 6.32149 6.45829 6.66667 6.45829H13.3333C13.6785 6.45829 13.9583 6.17847 13.9583 5.83329C13.9583 5.48811 13.6785 5.20829 13.3333 5.20829H6.66667Z" fill="white"/>
</svg>
