<svg width="20" height="20" viewBox="0 0 20 20" fill="none" xmlns="http://www.w3.org/2000/svg">
<path fill-rule="evenodd" clip-rule="evenodd" d="M10.625 2.29297C10.625 1.94779 10.3452 1.66797 10 1.66797C9.65482 1.66797 9.375 1.94779 9.375 2.29297V4.3763C9.375 4.72148 9.65482 5.0013 10 5.0013C10.3452 5.0013 10.625 4.72148 10.625 4.3763V2.29297ZM10.625 15.8359C10.625 15.4908 10.3452 15.2109 10 15.2109C9.65482 15.2109 9.375 15.4908 9.375 15.8359V17.7109C9.375 18.0561 9.65482 18.3359 10 18.3359C10.3452 18.3359 10.625 18.0561 10.625 17.7109V15.8359ZM15.8951 4.10991C16.1391 4.35399 16.1391 4.74972 15.8951 4.99379L14.4219 6.46693C14.1778 6.71101 13.7821 6.71101 13.538 6.46693C13.294 6.22286 13.294 5.82713 13.538 5.58305L15.0112 4.10991C15.2553 3.86583 15.651 3.86583 15.8951 4.10991ZM6.31694 14.568C6.56102 14.3239 6.56102 13.9282 6.31694 13.6841C6.07286 13.4401 5.67714 13.4401 5.43306 13.6841L4.10723 15.01C3.86316 15.254 3.86316 15.6498 4.10723 15.8938C4.35131 16.1379 4.74704 16.1379 4.99112 15.8938L6.31694 14.568ZM18.3359 10C18.3359 10.3452 18.0561 10.625 17.7109 10.625H15.6276C15.2824 10.625 15.0026 10.3452 15.0026 10C15.0026 9.65482 15.2824 9.375 15.6276 9.375H17.7109C18.0561 9.375 18.3359 9.65482 18.3359 10ZM4.16797 10.625C4.51315 10.625 4.79297 10.3452 4.79297 10C4.79297 9.65482 4.51315 9.375 4.16797 9.375H2.29297C1.94779 9.375 1.66797 9.65482 1.66797 10C1.66797 10.3452 1.94779 10.625 2.29297 10.625H4.16797ZM15.894 15.8951C15.6499 16.1391 15.2542 16.1391 15.0101 15.8951L13.537 14.4219C13.2929 14.1778 13.2929 13.7821 13.537 13.538C13.7811 13.294 14.1768 13.294 14.4209 13.538L15.894 15.0112C16.1381 15.2553 16.1381 15.651 15.894 15.8951ZM5.43589 6.31694C5.67997 6.56102 6.0757 6.56102 6.31978 6.31694C6.56385 6.07286 6.56385 5.67714 6.31978 5.43306L4.99395 4.10723C4.74987 3.86316 4.35415 3.86316 4.11007 4.10723C3.86599 4.35131 3.86599 4.74704 4.11007 4.99112L5.43589 6.31694Z" fill="black"/>
</svg>
