<svg width="48" height="48" viewBox="0 0 48 48" fill="none" xmlns="http://www.w3.org/2000/svg">
<path fill-rule="evenodd" clip-rule="evenodd" d="M36.6462 10.3231L24.8944 4.44723C24.3314 4.1657 23.6686 4.1657 23.1056 4.44723L11.3538 10.3231L24 16.6463L36.6462 10.3231ZM8 23.3544V34.7639C8 35.5215 8.428 36.214 9.10557 36.5528L23.1056 43.5528C23.6686 43.8343 24.3314 43.8343 24.8944 43.5528L38.8944 36.5528C39.572 36.214 40 35.5215 40 34.7639V23.3545L29.3417 28.6836C27.9884 29.3603 26.3431 28.9233 25.5039 27.6645L24 25.4087L22.4962 27.6645C21.6569 28.9233 20.0116 29.3603 18.6584 28.6836L8 23.3544ZM23.9527 20.0314L8.03247 12.0469L4.05859 17.9605L20.0635 26.0053L23.9527 20.0314ZM23.9527 20.0314L27.9968 26.0053L44.0354 18.0758L39.9829 12.0991L23.9527 20.0314Z" fill="#AAB9D0"/>
</svg>
