<svg width="32" height="32" viewBox="0 0 32 32" fill="none" xmlns="http://www.w3.org/2000/svg">
<rect width="32" height="32" rx="8" fill="white"/>
<path fill-rule="evenodd" clip-rule="evenodd" d="M13.5 15.1667C14.8807 15.1667 16 14.0474 16 12.6667C16 11.286 14.8807 10.1667 13.5 10.1667C12.3351 10.1667 11.3563 10.9634 11.0788 12.0417H8.5C8.15482 12.0417 7.875 12.3215 7.875 12.6667C7.875 13.0119 8.15482 13.2917 8.5 13.2917H11.0788C11.3563 14.37 12.3351 15.1667 13.5 15.1667ZM17.875 12.6667C17.875 12.3215 18.1548 12.0417 18.5 12.0417H23.5C23.8452 12.0417 24.125 12.3215 24.125 12.6667C24.125 13.0119 23.8452 13.2917 23.5 13.2917H18.5C18.1548 13.2917 17.875 13.0119 17.875 12.6667ZM20.9212 19.9584C20.6437 21.0366 19.6649 21.8334 18.5 21.8334C17.1193 21.8334 16 20.7141 16 19.3334C16 17.9526 17.1193 16.8334 18.5 16.8334C19.6649 16.8334 20.6437 17.6301 20.9212 18.7084H23.5C23.8452 18.7084 24.125 18.9882 24.125 19.3334C24.125 19.6785 23.8452 19.9584 23.5 19.9584H20.9212ZM7.875 19.3334C7.875 18.9882 8.15482 18.7084 8.5 18.7084H13.5C13.8452 18.7084 14.125 18.9882 14.125 19.3334C14.125 19.6785 13.8452 19.9584 13.5 19.9584H8.5C8.15482 19.9584 7.875 19.6785 7.875 19.3334Z" fill="#AAB9D0"/>
</svg>
