<svg width="32" height="32" viewBox="0 0 32 32" fill="none" xmlns="http://www.w3.org/2000/svg">
<rect width="32" height="32" rx="8" fill="#2C323C"/>
<path fill-rule="evenodd" clip-rule="evenodd" d="M13.5 15.1666C14.8807 15.1666 16 14.0473 16 12.6666C16 11.2859 14.8807 10.1666 13.5 10.1666C12.3351 10.1666 11.3563 10.9634 11.0788 12.0416H8.5C8.15482 12.0416 7.875 12.3214 7.875 12.6666C7.875 13.0118 8.15482 13.2916 8.5 13.2916H11.0788C11.3563 14.3699 12.3351 15.1666 13.5 15.1666ZM17.875 12.6666C17.875 12.3214 18.1548 12.0416 18.5 12.0416H23.5C23.8452 12.0416 24.125 12.3214 24.125 12.6666C24.125 13.0118 23.8452 13.2916 23.5 13.2916H18.5C18.1548 13.2916 17.875 13.0118 17.875 12.6666ZM20.9212 19.9583C20.6437 21.0366 19.6649 21.8333 18.5 21.8333C17.1193 21.8333 16 20.714 16 19.3333C16 17.9526 17.1193 16.8333 18.5 16.8333C19.6649 16.8333 20.6437 17.63 20.9212 18.7083H23.5C23.8452 18.7083 24.125 18.9881 24.125 19.3333C24.125 19.6785 23.8452 19.9583 23.5 19.9583H20.9212ZM7.875 19.3333C7.875 18.9881 8.15482 18.7083 8.5 18.7083H13.5C13.8452 18.7083 14.125 18.9881 14.125 19.3333C14.125 19.6785 13.8452 19.9583 13.5 19.9583H8.5C8.15482 19.9583 7.875 19.6785 7.875 19.3333Z" fill="#768398"/>
</svg>
