<svg width="20" height="20" viewBox="0 0 20 20" fill="none" xmlns="http://www.w3.org/2000/svg">
<path fill-rule="evenodd" clip-rule="evenodd" d="M3.45801 1.66663C2.35344 1.66663 1.45801 2.56205 1.45801 3.66662V6.33329C1.45801 7.43786 2.35344 8.33329 3.45801 8.33329H7.79134C8.89591 8.33329 9.79134 7.43786 9.79134 6.33329V3.66663C9.79134 2.56206 8.89591 1.66663 7.79134 1.66663H3.45801ZM11.7913 11.6666C10.6868 11.6666 9.79134 12.5621 9.79134 13.6666V16.3333C9.79134 17.4379 10.6868 18.3333 11.7913 18.3333H16.1247C17.2292 18.3333 18.1247 17.4379 18.1247 16.3333V13.6666C18.1247 12.5621 17.2292 11.6666 16.1247 11.6666H11.7913ZM16.961 5.62496L16.3612 6.22468C16.1172 6.46876 16.1172 6.86449 16.3612 7.10857C16.6053 7.35265 17.001 7.35265 17.2451 7.10857L18.3225 6.03116C18.8921 5.46164 18.8921 4.53828 18.3225 3.96876L17.2451 2.89135C17.001 2.64727 16.6053 2.64727 16.3612 2.89135C16.1172 3.13543 16.1172 3.53116 16.3612 3.77523L16.961 4.37496H13.1247C12.7795 4.37496 12.4997 4.65478 12.4997 4.99996C12.4997 5.34514 12.7795 5.62496 13.1247 5.62496L16.961 5.62496ZM3.22144 16.2247L2.62171 15.625H6.45801C6.80319 15.625 7.08301 15.3451 7.08301 15C7.08301 14.6548 6.80319 14.375 6.45801 14.375H2.62171L3.22144 13.7752C3.46552 13.5312 3.46552 13.1354 3.22144 12.8914C2.97736 12.6473 2.58163 12.6473 2.33755 12.8913L1.26014 13.9688C0.690628 14.5383 0.69063 15.4616 1.26014 16.0312L2.33756 17.1086C2.58163 17.3526 2.97736 17.3526 3.22144 17.1086C3.46552 16.8645 3.46552 16.4688 3.22144 16.2247Z" fill="#768398"/>
</svg>
