<svg width="20" height="20" viewBox="0 0 20 20" fill="none" xmlns="http://www.w3.org/2000/svg">
<path fill-rule="evenodd" clip-rule="evenodd" d="M3.45833 1.66663C2.35376 1.66663 1.45833 2.56205 1.45833 3.66662V6.33329C1.45833 7.43786 2.35376 8.33329 3.45833 8.33329H7.79166C8.89623 8.33329 9.79166 7.43786 9.79166 6.33329V3.66663C9.79166 2.56206 8.89623 1.66663 7.79166 1.66663H3.45833ZM11.7917 11.6666C10.6871 11.6666 9.79166 12.5621 9.79166 13.6666V16.3333C9.79166 17.4379 10.6871 18.3333 11.7917 18.3333H16.125C17.2296 18.3333 18.125 17.4379 18.125 16.3333V13.6666C18.125 12.5621 17.2296 11.6666 16.125 11.6666H11.7917ZM16.9613 5.62496L16.3616 6.22468C16.1175 6.46876 16.1175 6.86449 16.3616 7.10857C16.6056 7.35265 17.0014 7.35265 17.2454 7.10857L18.3229 6.03116C18.8924 5.46164 18.8924 4.53828 18.3229 3.96876L17.2454 2.89135C17.0014 2.64727 16.6056 2.64727 16.3616 2.89135C16.1175 3.13543 16.1175 3.53116 16.3616 3.77523L16.9613 4.37496H13.125C12.7798 4.37496 12.5 4.65478 12.5 4.99996C12.5 5.34514 12.7798 5.62496 13.125 5.62496L16.9613 5.62496ZM3.22176 16.2247L2.62203 15.625H6.45833C6.80351 15.625 7.08333 15.3451 7.08333 15C7.08333 14.6548 6.80351 14.375 6.45833 14.375H2.62203L3.22176 13.7752C3.46584 13.5312 3.46584 13.1354 3.22176 12.8914C2.97768 12.6473 2.58195 12.6473 2.33788 12.8913L1.26046 13.9688C0.690949 14.5383 0.69095 15.4616 1.26046 16.0312L2.33788 17.1086C2.58195 17.3526 2.97768 17.3526 3.22176 17.1086C3.46584 16.8645 3.46584 16.4688 3.22176 16.2247Z" fill="#AAB9D0"/>
</svg>
