<svg width="32" height="32" viewBox="0 0 32 32" fill="none" xmlns="http://www.w3.org/2000/svg">
<rect width="32" height="32" rx="8" fill="#2C323C"/>
<path fill-rule="evenodd" clip-rule="evenodd" d="M14.2002 10.2187C13.9007 10.9736 13.6569 11.8906 13.4922 12.9201C14.2892 12.8471 15.1312 12.8082 16.0001 12.8082C16.869 12.8082 17.711 12.8471 18.508 12.9201C18.3433 11.8906 18.0995 10.9736 17.8 10.2187C17.5121 9.49315 17.1852 8.9488 16.8545 8.59629C16.5251 8.24512 16.2361 8.12718 16.0001 8.12718C15.7641 8.12718 15.4751 8.24512 15.1457 8.59629C14.815 8.9488 14.4881 9.49315 14.2002 10.2187ZM13.0245 9.7446C12.6507 10.6865 12.364 11.8212 12.1882 13.0756C11.323 13.2042 10.5335 13.3759 9.84872 13.583C9.05194 13.824 8.36102 14.1236 7.85516 14.4853C7.79125 14.531 7.72817 14.5793 7.66679 14.6302C8.22516 11.1507 10.876 8.37796 14.2758 7.66663C14.259 7.68393 14.2422 7.70142 14.2257 7.71909C13.7483 8.22794 13.3477 8.93 13.0245 9.7446ZM17.7244 7.66663C17.7412 7.68393 17.758 7.70142 17.7745 7.71909C18.2519 8.22794 18.6525 8.93 18.9757 9.7446C19.3495 10.6865 19.6362 11.8212 19.812 13.0756C20.6772 13.2042 21.4667 13.3759 22.1515 13.583C22.9483 13.824 23.6392 14.1236 24.145 14.4853C24.209 14.531 24.272 14.5793 24.3334 14.6303C23.775 11.1507 21.1242 8.37795 17.7244 7.66663ZM24.3335 17.3694C24.2721 17.4203 24.209 17.4686 24.145 17.5144C23.6392 17.8761 22.9483 18.1757 22.1515 18.4167C21.4667 18.6238 20.6772 18.7955 19.812 18.9241C19.6362 20.1785 19.3495 21.3132 18.9757 22.2551C18.6525 23.0697 18.2519 23.7718 17.7745 24.2806C17.7579 24.2984 17.7411 24.3159 17.7241 24.3333C21.1241 23.6221 23.7752 20.8492 24.3335 17.3694ZM14.2761 24.3333C14.2591 24.3159 14.2423 24.2984 14.2257 24.2806C13.7483 23.7718 13.3477 23.0697 13.0245 22.2551C12.6507 21.3132 12.364 20.1785 12.1882 18.9241C11.323 18.7955 10.5335 18.6238 9.84872 18.4167C9.05194 18.1757 8.36102 17.8761 7.85516 17.5144C7.79123 17.4687 7.72814 17.4203 7.66675 17.3694C8.22505 20.8492 10.8761 23.6221 14.2761 24.3333ZM10.2126 17.1939C10.7497 17.3563 11.3676 17.4971 12.0487 17.6101C12.0101 17.0867 11.9901 16.5484 11.9901 15.9998C11.9901 15.4513 12.0101 14.913 12.0487 14.3896C11.3676 14.5025 10.7497 14.6434 10.2126 14.8058C9.48166 15.0269 8.93628 15.2774 8.58776 15.5266C8.22279 15.7876 8.19119 15.9568 8.19119 15.9998C8.19119 16.0429 8.22279 16.2121 8.58776 16.473C8.93628 16.7223 9.48166 16.9728 10.2126 17.1939ZM13.2564 15.9998C13.2564 16.6137 13.283 17.2098 13.3329 17.7815C14.1653 17.8676 15.0625 17.9148 16.0001 17.9148C16.9377 17.9148 17.8349 17.8676 18.6673 17.7815C18.7172 17.2098 18.7438 16.6137 18.7438 15.9998C18.7438 15.386 18.7172 14.7899 18.6673 14.2182C17.8349 14.1321 16.9377 14.0849 16.0001 14.0849C15.0625 14.0849 14.1653 14.1321 13.3329 14.2182C13.283 14.7899 13.2564 15.386 13.2564 15.9998ZM14.2002 21.781C13.9007 21.026 13.6569 20.1091 13.4922 19.0796C14.2892 19.1526 15.1312 19.1915 16.0001 19.1915C16.869 19.1915 17.711 19.1526 18.508 19.0796C18.3433 20.1091 18.0995 21.026 17.8 21.781C17.5121 22.5065 17.1852 23.0509 16.8545 23.4034C16.5251 23.7546 16.2361 23.8725 16.0001 23.8725C15.7641 23.8725 15.4751 23.7546 15.1457 23.4034C14.815 23.0509 14.4881 22.5065 14.2002 21.781ZM21.7876 17.1939C21.2505 17.3563 20.6326 17.4971 19.9515 17.6101C19.9901 17.0867 20.0101 16.5484 20.0101 15.9998C20.0101 15.4513 19.9901 14.913 19.9515 14.3896C20.6326 14.5026 21.2505 14.6434 21.7876 14.8058C22.5185 15.0269 23.0639 15.2774 23.4124 15.5266C23.7774 15.7876 23.809 15.9568 23.809 15.9998C23.809 16.0429 23.7774 16.2121 23.4124 16.473C23.0639 16.7223 22.5185 16.9728 21.7876 17.1939Z" fill="#768398"/>
</svg>
