<svg width="32" height="32" viewBox="0 0 32 32" fill="none" xmlns="http://www.w3.org/2000/svg">
<rect width="32" height="32" rx="8" fill="white"/>
<path fill-rule="evenodd" clip-rule="evenodd" d="M14.1999 10.2188C13.9004 10.9737 13.6567 11.8907 13.4919 12.9201C14.2889 12.8471 15.131 12.8083 15.9999 12.8083C16.8687 12.8083 17.7108 12.8471 18.5078 12.9201C18.3431 11.8907 18.0993 10.9737 17.7998 10.2188C17.5119 9.49321 17.1849 8.94886 16.8542 8.59635C16.5248 8.24518 16.2359 8.12724 15.9999 8.12724C15.7638 8.12724 15.4749 8.24518 15.1455 8.59635C14.8148 8.94886 14.4878 9.49321 14.1999 10.2188ZM13.0242 9.74466C12.6505 10.6866 12.3637 11.8213 12.188 13.0757C11.3228 13.2043 10.5333 13.3759 9.84848 13.583C9.0517 13.824 8.36077 14.1237 7.85491 14.4854C7.791 14.5311 7.72792 14.5794 7.66654 14.6303C8.22491 11.1507 10.8758 8.37802 14.2756 7.66669C14.2587 7.68399 14.242 7.70148 14.2254 7.71915C13.7481 8.228 13.3474 8.93006 13.0242 9.74466ZM17.7241 7.66669C17.741 7.68399 17.7577 7.70148 17.7743 7.71915C18.2516 8.228 18.6523 8.93006 18.9755 9.74466C19.3492 10.6866 19.636 11.8213 19.8117 13.0757C20.6769 13.2043 21.4664 13.3759 22.1512 13.583C22.948 13.824 23.6389 14.1237 24.1448 14.4854C24.2087 14.5311 24.2718 14.5794 24.3332 14.6303C23.7748 11.1507 21.1239 8.37802 17.7241 7.66669ZM24.3332 17.3695C24.2718 17.4204 24.2087 17.4687 24.1448 17.5144C23.6389 17.8761 22.948 18.1758 22.1512 18.4168C21.4664 18.6239 20.6769 18.7955 19.8117 18.9242C19.636 20.1785 19.3492 21.3132 18.9755 22.2552C18.6523 23.0698 18.2516 23.7718 17.7743 24.2807C17.7576 24.2984 17.7408 24.316 17.7239 24.3334C21.1239 23.6221 23.7749 20.8492 24.3332 17.3695ZM14.2758 24.3334C14.2589 24.316 14.2421 24.2984 14.2254 24.2807C13.7481 23.7718 13.3474 23.0698 13.0242 22.2552C12.6505 21.3132 12.3637 20.1785 12.188 18.9242C11.3228 18.7955 10.5333 18.6239 9.84848 18.4168C9.0517 18.1758 8.36077 17.8761 7.85491 17.5144C7.79099 17.4687 7.7279 17.4204 7.6665 17.3695C8.22481 20.8492 10.8758 23.6221 14.2758 24.3334ZM10.2124 17.194C10.7494 17.3564 11.3674 17.4972 12.0484 17.6102C12.0099 17.0867 11.9899 16.5485 11.9899 15.9999C11.9899 15.4514 12.0099 14.9131 12.0484 14.3896C11.3674 14.5026 10.7494 14.6434 10.2124 14.8059C9.48142 15.0269 8.93603 15.2775 8.58751 15.5267C8.22254 15.7877 8.19095 15.9568 8.19095 15.9999C8.19095 16.043 8.22254 16.2121 8.58751 16.4731C8.93603 16.7223 9.48142 16.9729 10.2124 17.194ZM13.2562 15.9999C13.2562 16.6137 13.2827 17.2099 13.3327 17.7816C14.1651 17.8676 15.0622 17.9149 15.9999 17.9149C16.9375 17.9149 17.8346 17.8676 18.6671 17.7816C18.717 17.2099 18.7435 16.6137 18.7435 15.9999C18.7435 15.3861 18.717 14.7899 18.6671 14.2182C17.8346 14.1322 16.9375 14.0849 15.9999 14.0849C15.0622 14.0849 14.1651 14.1322 13.3327 14.2182C13.2827 14.7899 13.2562 15.3861 13.2562 15.9999ZM14.1999 21.781C13.9004 21.0261 13.6567 20.1091 13.4919 19.0797C14.2889 19.1527 15.131 19.1915 15.9999 19.1915C16.8687 19.1915 17.7108 19.1527 18.5078 19.0797C18.3431 20.1091 18.0993 21.0261 17.7998 21.781C17.5119 22.5066 17.1849 23.051 16.8542 23.4035C16.5248 23.7546 16.2359 23.8726 15.9999 23.8726C15.7638 23.8726 15.4749 23.7546 15.1455 23.4035C14.8148 23.051 14.4878 22.5066 14.1999 21.781ZM21.7874 17.194C21.2503 17.3564 20.6324 17.4972 19.9513 17.6102C19.9898 17.0867 20.0098 16.5485 20.0098 15.9999C20.0098 15.4514 19.9898 14.9131 19.9513 14.3896C20.6324 14.5026 21.2503 14.6434 21.7874 14.8059C22.5183 15.0269 23.0637 15.2775 23.4122 15.5267C23.7772 15.7877 23.8088 15.9568 23.8088 15.9999C23.8088 16.043 23.7772 16.2121 23.4122 16.4731C23.0637 16.7223 22.5183 16.9729 21.7874 17.194Z" fill="#AAB9D0"/>
</svg>
